# xmcd
#
# Track frame offsets: 
#        150
#        17106
#        35167
#        50089
#        67953
#        95221
#        111674
#        125431
#        141386
#        153527
#        170546
#
# Disc length: 2546 seconds
#
# Revision: 1
# Processed by: cddbd v1.5.2PL0 Copyright (c) Steve Scherf et al.
# Submitted via: ExactAudioCopyFreeDBPlugin 1.0
#
DISCID=aa09f00b
DTITLE=Olivia Newton-John - 1977 - Making A Good Thing Better
DYEAR=1977
DGENRE=Country
TTITLE0=Making A Good Thing Better
TTITLE1=Slow Dancing
TTITLE2=Ring Of Fire
TTITLE3=Coolin' Down
TTITLE4=Don't Cry For Me Argentina
TTITLE5=Sad Songs
TTITLE6=You Won't See Me Cry
TTITLE7=So Easy To Begin
TTITLE8=I Think I'll Say Goodbye
TTITLE9=Don't Ask A Friend
TTITLE10=If Love Is Real
EXTD=
EXTT0=
EXTT1=
EXTT2=
EXTT3=
EXTT4=
EXTT5=
EXTT6=
EXTT7=
EXTT8=
EXTT9=
EXTT10=
PLAYORDER=
